<svg width="168" height="24" viewBox="0 0 168 24" fill="none" xmlns="http://www.w3.org/2000/svg">
<path d="M11.1033 1.81699C11.4701 1.07374 12.5299 1.07374 12.8967 1.81699L15.294 6.67446C15.4397 6.9696 15.7213 7.17417 16.047 7.2215L21.4075 8.00043C22.2277 8.11961 22.5552 9.12759 21.9617 9.70612L18.0828 13.4871C17.8471 13.7169 17.7396 14.0479 17.7952 14.3723L18.7109 19.7111C18.851 20.528 17.9936 21.151 17.26 20.7653L12.4653 18.2446C12.174 18.0915 11.826 18.0915 11.5347 18.2446L6.74005 20.7653C6.00642 21.151 5.14899 20.528 5.2891 19.7111L6.20479 14.3723C6.26043 14.0479 6.15288 13.7169 5.91719 13.4871L2.03827 9.70612C1.44476 9.12759 1.77226 8.11961 2.59249 8.00043L7.95302 7.2215C8.27873 7.17417 8.5603 6.9696 8.70596 6.67446L11.1033 1.81699Z" fill="#FFD600"/>
<path d="M47.1033 1.81699C47.4701 1.07374 48.5299 1.07374 48.8967 1.81699L51.294 6.67446C51.4397 6.9696 51.7213 7.17417 52.047 7.2215L57.4075 8.00043C58.2277 8.11961 58.5552 9.12759 57.9617 9.70612L54.0828 13.4871C53.8471 13.7169 53.7396 14.0479 53.7952 14.3723L54.7109 19.7111C54.851 20.528 53.9936 21.151 53.26 20.7653L48.4653 18.2446C48.174 18.0915 47.826 18.0915 47.5347 18.2446L42.7401 20.7653C42.0064 21.151 41.149 20.528 41.2891 19.7111L42.2048 14.3723C42.2604 14.0479 42.1529 13.7169 41.9172 13.4871L38.0383 9.70612C37.4448 9.12759 37.7723 8.11961 38.5925 8.00043L43.953 7.2215C44.2787 7.17417 44.5603 6.9696 44.706 6.67446L47.1033 1.81699Z" fill="#FFD600"/>
<path d="M83.1033 1.81699C83.4701 1.07374 84.5299 1.07374 84.8967 1.81699L87.294 6.67446C87.4397 6.9696 87.7213 7.17417 88.047 7.2215L93.4075 8.00043C94.2277 8.11961 94.5552 9.12759 93.9617 9.70612L90.0828 13.4871C89.8471 13.7169 89.7396 14.0479 89.7952 14.3723L90.7109 19.7111C90.851 20.528 89.9936 21.151 89.26 20.7653L84.4653 18.2446C84.174 18.0915 83.826 18.0915 83.5347 18.2446L78.7401 20.7653C78.0064 21.151 77.149 20.528 77.2891 19.7111L78.2048 14.3723C78.2604 14.0479 78.1529 13.7169 77.9172 13.4871L74.0383 9.70612C73.4448 9.12759 73.7723 8.11961 74.5925 8.00043L79.953 7.2215C80.2787 7.17417 80.5603 6.9696 80.706 6.67446L83.1033 1.81699Z" fill="#FFD600"/>
<path d="M119.103 1.81699C119.47 1.07374 120.53 1.07374 120.897 1.81699L123.294 6.67446C123.44 6.9696 123.721 7.17417 124.047 7.2215L129.408 8.00043C130.228 8.11961 130.555 9.12759 129.962 9.70612L126.083 13.4871C125.847 13.7169 125.74 14.0479 125.795 14.3723L126.711 19.7111C126.851 20.528 125.994 21.151 125.26 20.7653L120.465 18.2446C120.174 18.0915 119.826 18.0915 119.535 18.2446L114.74 20.7653C114.006 21.151 113.149 20.528 113.289 19.7111L114.205 14.3723C114.26 14.0479 114.153 13.7169 113.917 13.4871L110.038 9.70612C109.445 9.12759 109.772 8.11961 110.592 8.00043L115.953 7.2215C116.279 7.17417 116.56 6.9696 116.706 6.67446L119.103 1.81699Z" fill="#FFD600"/>
<path d="M155.103 1.81699C155.47 1.07374 156.53 1.07374 156.897 1.81699L159.294 6.67446C159.44 6.9696 159.721 7.17417 160.047 7.2215L165.408 8.00043C166.228 8.11961 166.555 9.12759 165.962 9.70612L162.083 13.4871C161.847 13.7169 161.74 14.0479 161.795 14.3723L162.711 19.7111C162.851 20.528 161.994 21.151 161.26 20.7653L156.465 18.2446C156.174 18.0915 155.826 18.0915 155.535 18.2446L150.74 20.7653C150.006 21.151 149.149 20.528 149.289 19.7111L150.205 14.3723C150.26 14.0479 150.153 13.7169 149.917 13.4871L146.038 9.70612C145.445 9.12759 145.772 8.11961 146.592 8.00043L151.953 7.2215C152.279 7.17417 152.56 6.9696 152.706 6.67446L155.103 1.81699Z" fill="#FFD600"/>
</svg>
